<?xml version="1.0" encoding="utf-8"?>
<svg version="1.1" id="Layer_1" xmlns="http://www.w3.org/2000/svg" x="0px" y="0px" viewBox="-0.394 527.223 1080.394 185.809" style="enable-background:new 0 0 1080 1080;">
  <style type="text/css">
	.st0{fill:#020617;}
	.st1{fill:#FFB347;}
</style>
  <g>
    <polygon class="st1" points="126.64,531.31 83.27,574.68 39.9,531.31 &#9;"/>
    <path class="st0" d="M1047.38,534.89v23.36c-5.87-7.82-13.15-14.18-22.04-18.88c-10.16-5.38-21.68-8.06-34.59-8.06 c-15.77,0-29.93,3.94-42.47,11.83c-12.54,7.88-22.46,18.52-29.75,31.9c-7.29,13.38-10.93,28.44-10.93,45.16 c0,16.73,3.64,31.78,10.93,45.16c7.29,13.39,17.2,23.96,29.75,31.72c12.54,7.77,26.7,11.65,42.47,11.65 c12.9,0,24.49-2.69,34.77-8.06c8.88-4.65,16.1-10.95,21.86-18.73v23.21H1080V534.89H1047.38z M1034.84,661.95 c-9.8,10.88-22.7,16.31-38.7,16.31c-10.76,0-20.31-2.51-28.67-7.53c-8.36-5.02-14.87-11.88-19.53-20.61 c-4.66-8.72-6.99-18.81-6.99-30.28c0-11.23,2.33-21.2,6.99-29.92c4.66-8.72,11.11-15.59,19.35-20.61 c8.24-5.02,17.74-7.53,28.49-7.53c10.75,0,20.13,2.45,28.13,7.35c8.01,4.9,14.28,11.77,18.82,20.61 c4.53,8.84,6.81,18.99,6.81,30.46C1049.53,637.16,1044.63,651.08,1034.84,661.95z"/>
    <path class="st0" d="M286.17,706.61c-16.38,0-31.21-3.91-44.5-11.75c-13.29-7.83-23.85-18.45-31.68-31.86 c-7.83-13.41-11.75-28.42-11.75-45.03c0-16.38,3.92-31.15,11.75-44.32c7.83-13.17,18.39-23.67,31.68-31.51 c13.29-7.83,28.12-11.75,44.5-11.75c16.61,0,31.62,3.86,45.03,11.57c13.41,7.71,24.03,18.22,31.86,31.51 c7.83,13.29,11.75,28.12,11.75,44.5c0,16.62-3.92,31.63-11.75,45.03c-7.83,13.41-18.46,24.03-31.86,31.86 C317.8,702.69,302.78,706.61,286.17,706.61z M286.17,675.64c10.91,0,20.53-2.49,28.84-7.48c8.3-4.98,14.83-11.8,19.58-20.47 c4.74-8.66,7.12-18.57,7.12-29.73c0-10.91-2.44-20.65-7.3-29.19c-4.87-8.55-11.39-15.25-19.58-20.12 c-8.19-4.86-17.75-7.3-28.66-7.3c-10.44,0-19.82,2.44-28.12,7.3c-8.31,4.87-14.84,11.57-19.58,20.12 c-4.75,8.54-7.12,18.28-7.12,29.19c0,11.16,2.37,21.07,7.12,29.73c4.74,8.67,11.27,15.49,19.58,20.47 C266.35,673.14,275.73,675.64,286.17,675.64z"/>
    <path class="st0" d="M515.23,535.83c-7-3.02-14.84-4.52-23.52-4.52c-19.06,0-33.65,6.51-43.79,19.54 c-1.03,1.32-1.97,2.72-2.89,4.14v-23.68h-32.57v175.51h32.57v-97.7c0-15.92,3.86-27.74,11.58-35.46 c7.72-7.72,17.61-11.58,29.68-11.58c5.79,0,10.85,0.85,15.19,2.53c4.34,1.69,8.33,4.47,11.94,8.32l21.35-22.08 C528.73,543.86,522.22,538.85,515.23,535.83z"/>
    <path class="st0" d="M698.53,571.57c-6.71-12.47-16.07-22.25-28.07-29.31c-12.01-7.06-25.66-10.59-40.96-10.59 c-16.25,0-30.9,3.83-43.97,11.48c-13.06,7.65-23.43,18.07-31.08,31.25c-7.65,13.19-11.47,28.02-11.47,44.49 c0,16.72,3.89,31.67,11.65,44.85c7.77,13.19,18.3,23.61,31.61,31.25c13.3,7.65,28.43,11.48,45.38,11.48 c13.18,0,25.54-2.47,37.08-7.42c11.53-4.94,21.42-12.12,29.67-21.54l-20.48-20.84c-5.65,6.59-12.42,11.54-20.3,14.83 c-7.89,3.3-16.55,4.94-25.96,4.94c-11.3,0-21.31-2.41-30.02-7.24c-8.71-4.82-15.43-11.65-20.13-20.48 c-2.87-5.38-4.75-11.36-5.87-17.83h131.24c0.7-3.3,1.18-6.3,1.41-9.01c0.23-2.7,0.35-5.24,0.35-7.59 C708.59,598.29,705.23,584.05,698.53,571.57z M600.18,568.04c8.24-4.71,17.77-7.06,28.6-7.06c10.36,0,19.18,2.18,26.48,6.53 c7.29,4.36,12.95,10.48,16.96,18.36c2.72,5.37,4.44,11.59,5.31,18.54h-101.9c1.08-6.04,2.84-11.62,5.47-16.6 C585.58,579.34,591.93,572.75,600.18,568.04z"/>
    <polygon class="st0" points="893.03,706.82 828.65,616.1 889.77,531.31 851.77,531.31 809.31,592.4 765.65,531.31 725.84,531.31 &#10;&#9;&#9;788.35,616.87 722.94,706.82 761.3,706.82 807.46,640.64 853.58,706.82 &#9;"/>
    <rect x="0.11" y="531.66" class="st0" width="33.94" height="175.15"/>
    <rect x="132.33" y="531.31" class="st0" width="33.94" height="175.51"/>
    <polygon class="st0" points="83.25,610.85 66.3,591.79 66.3,706.82 100.24,706.82 100.24,591.74 &#9;"/>
  </g>
</svg>